<?xml version="1.0" encoding="UTF-8" standalone="no"?>
<!DOCTYPE svg PUBLIC "-//W3C//DTD SVG 1.1//EN" "http://www.w3.org/Graphics/SVG/1.1/DTD/svg11.dtd">
<svg width="100%" height="100%" viewBox="0 0 4000 4000" version="1.1" xmlns="http://www.w3.org/2000/svg" xmlns:xlink="http://www.w3.org/1999/xlink" xml:space="preserve" xmlns:serif="http://www.serif.com/" style="fill-rule:evenodd;clip-rule:evenodd;stroke-linejoin:round;stroke-miterlimit:2;">
    <g transform="matrix(0.943778,0,0,0.943778,-178.354,570.459)">
        <path d="M541.849,1156.48L615.253,1076.46L539.442,988.616L685.046,788.862L608.032,725.687L438.361,951.915L504.545,759.38L407.075,723.881L259.064,1110.76L367.364,1156.48L417.905,1009.07L541.849,1156.48Z" style="fill-rule:nonzero;"/>
        <path d="M639.921,1101.73L800.567,1156.48C884.199,1139.64 941.96,1039.16 944.366,901.976L778.305,841.207C691.665,858.054 632.701,971.77 639.921,1101.73ZM759.653,1086.69L746.417,1081.27C760.857,1022.91 784.924,965.753 817.414,915.213L830.651,920.628C816.21,978.99 792.144,1036.15 759.653,1086.69Z" style="fill-rule:nonzero;"/>
        <path d="M1222.94,1156.48L1307.78,888.138L1247.61,841.207C1201.28,870.087 1157.36,911.001 1115.84,959.135L1142.32,888.739L1034.62,848.427L929.324,1110.76L1040.63,1156.48L1075.53,1065.03L1166.38,950.11L1174.81,956.728C1131.49,1012.68 1112.83,1059.61 1099.6,1110.76L1222.94,1156.48Z" style="fill-rule:nonzero;"/>
        <path d="M1550.85,1116.17L1541.83,1051.19L1420.29,1063.83C1434.73,1011.48 1456.99,960.94 1486.47,915.213L1487.67,914.611L1484.07,1018.7L1561.08,1025.32L1594.17,883.926L1447.36,841.207C1360.72,858.054 1301.76,971.77 1308.98,1101.73L1389.6,1158.29L1550.85,1116.17Z" style="fill-rule:nonzero;"/>
        <path d="M1866.12,1156.48L1950.36,888.138L1889.59,841.207C1842.06,871.291 1795.73,913.408 1753.01,963.948L1834.24,760.583L1722.93,723.28L1571.91,1110.76L1676.6,1156.48L1708.49,1076.46L1808.97,950.11L1817.39,956.728C1774.07,1012.68 1755.42,1059.61 1742.18,1110.76L1866.12,1156.48Z" style="fill-rule:nonzero;"/>
        <path d="M2230.14,1156.48L2315.57,886.332L2221.71,850.834L2076.11,1047.58L2067.08,1040.96C2111.01,983.803 2127.25,939.881 2140.49,887.536L2023.76,842.411L1938.93,1110.15L1994.28,1156.48C2050.24,1122.19 2104.39,1064.43 2152.52,998.845L2123.04,1116.17L2230.14,1156.48Z" style="fill-rule:nonzero;"/>
        <path d="M2686.8,1156.48L2774.65,1075.86L2700.64,997.04C2769.23,954.923 2810.15,898.366 2826.99,839.402L2762.01,723.28C2676.58,726.288 2591.74,739.525 2522.55,770.21L2533.38,812.929L2419.66,1110.76L2527.96,1156.48L2573.69,1023.51L2686.8,1156.48ZM2600.16,946.5L2636.26,842.411L2731.93,815.937C2707.86,883.324 2666.95,927.848 2600.16,946.5Z" style="fill-rule:nonzero;"/>
        <path d="M3045.4,1116.17L3036.37,1051.19L2914.84,1063.83C2916.64,1056.61 2919.05,1049.38 2920.85,1042.77L3055.63,1025.32L3088.72,883.926L2941.91,841.207C2855.27,858.054 2796.31,971.77 2803.53,1101.73L2884.15,1158.29L3045.4,1116.17ZM2934.09,1007.27C2946.72,974.778 2962.37,944.093 2981.02,915.213L2982.22,914.611L2979.22,998.243L2934.09,1007.27Z" style="fill-rule:nonzero;"/>
        <path d="M3177.77,1157.69C3239.74,1157.69 3292.08,1142.64 3319.76,1119.78L3310.13,1024.12L3230.11,992.226C3242.14,964.55 3256.59,938.076 3272.23,914.611L3269.82,986.811L3352.85,994.031L3378.72,883.926L3232.52,841.207C3175.36,849.631 3117.6,919.424 3100.15,1004.86C3139.86,1027.72 3181.38,1038.56 3233.72,1043.97L3233.72,1053L3080.9,1053L3065.25,1142.04C3104.36,1152.87 3142.87,1157.69 3177.77,1157.69Z" style="fill-rule:nonzero;"/>
        <path d="M3652.48,1156.48L3737.92,886.332L3644.06,850.834L3498.46,1047.58L3489.43,1040.96C3533.35,983.803 3549.6,939.881 3562.84,887.536L3446.11,842.411L3361.28,1110.15L3416.63,1156.48C3472.59,1122.19 3526.74,1064.43 3574.87,998.845L3545.39,1116.17L3652.48,1156.48Z" style="fill-rule:nonzero;"/>
        <path d="M3964.75,1156.48C3983.4,1067.43 4009.28,981.998 4047.78,892.951L3982.2,841.207C3951.51,855.647 3919.63,878.511 3889.54,908.594L3902.78,828.572L3825.77,811.124L3771.62,923.034L3798.69,958.533L3704.83,1134.22L3779.44,1156.48L3869.09,958.533L3912.41,956.126C3874.5,1013.28 3858.86,1062.62 3845.62,1113.76L3964.75,1156.48Z" style="fill-rule:nonzero;"/>
        <path d="M4324.55,1156.48L4409.99,886.332L4316.13,850.834L4287.85,904.984L4213.24,841.207C4119.38,850.232 4029.73,1000.05 4026.12,1110.76L4150.67,1156.48L4241.52,1019.3L4216.85,1116.17L4324.55,1156.48ZM4265.59,936.873L4141.04,1096.32L4137.43,1092.1C4159.09,1022.91 4221.06,951.915 4262.58,930.254L4265.59,936.873Z" style="fill-rule:nonzero;"/>
    </g>
    <g transform="matrix(1.00702,0.423015,-0.442913,1.05439,564.444,1515.91)">
        <g transform="matrix(1,0,0,1,-128,-128)">
            <clipPath id="_clip1">
                <rect x="0" y="0" width="256" height="256"/>
            </clipPath>
            <g clip-path="url(#_clip1)">
                <rect x="0" y="0" width="256" height="256" style="fill:none;stroke:white;stroke-width:1px;"/>
                <path d="M200,112C200,72.262 167.738,40 128,40C88.262,40 56,72.262 56,112L56,160C56,199.738 88.262,232 128,232C167.738,232 200,199.738 200,160L200,112Z" style="fill:none;stroke:white;stroke-width:16px;stroke-linecap:round;stroke-miterlimit:4;"/>
                <path d="M200,144L224,144" style="fill:none;fill-rule:nonzero;stroke:white;stroke-width:16px;stroke-linecap:round;stroke-miterlimit:4;"/>
                <path d="M32,144L56,144" style="fill:none;fill-rule:nonzero;stroke:white;stroke-width:16px;stroke-linecap:round;stroke-miterlimit:4;"/>
                <path d="M32,176L57.78,176" style="fill:none;fill-rule:nonzero;stroke:white;stroke-width:16px;stroke-linecap:round;stroke-miterlimit:4;"/>
                <path d="M32,112L224,112" style="fill:none;fill-rule:nonzero;stroke:white;stroke-width:16px;stroke-linecap:round;stroke-miterlimit:4;"/>
                <path d="M128,144L128,232" style="fill:none;fill-rule:nonzero;stroke:white;stroke-width:16px;stroke-linecap:round;stroke-miterlimit:4;"/>
                <path d="M198.22,176L224,176" style="fill:none;fill-rule:nonzero;stroke:white;stroke-width:16px;stroke-linecap:round;stroke-miterlimit:4;"/>
                <path d="M200,32L174.75,57.25" style="fill:none;fill-rule:nonzero;stroke:white;stroke-width:16px;stroke-linecap:round;stroke-miterlimit:4;"/>
                <path d="M56,32L81.25,57.25" style="fill:none;fill-rule:nonzero;stroke:white;stroke-width:16px;stroke-linecap:round;stroke-miterlimit:4;"/>
            </g>
        </g>
    </g>
</svg>
